<?xml version="1.0" encoding="UTF-8"?>
<svg xmlns="http://www.w3.org/2000/svg" viewBox="0 0 182.15 118.77">
  <path fill="#FF0080" d="M65.91,66.95c.42-.24,3.31-1.18,2.86-1.78-.17-.22-4.55-1.9-5.19-2.08-9.01-2.51-18.9-.68-26.87,3.94-10.28,5.95-19.58,19.42-31.86,20.51-3.13.28-6.65-.97-3.79,3.79,3.08,5.12,10.21,8.33,15.96,9.03,13.65,1.67,25.25-6.13,33.65-16.04,4.79-5.66,8.67-13.65,15.24-17.37Z"/>
  <path fill="#FF0080" d="M177.09,26.49c-6.51-2.43-9.31-7.92-15.19-11.11-.46-2.21-.57-12.74-1.77-13.94-1.56-1.56-4.46,2.84-5.13,3.92-1.31,2.08-2.17,4.43-3.5,6.49l-7.61-11.19c-3.05-2.92-4.45,4.75-4.81,6.63-1.83,9.57-.61,18.67-5.43,27.66-8.27,15.45-23.48,12.86-37.92,17.31-14.46,4.45-23.94,12.95-30.93,23.76-.04,0-.07,0-.07,0,0,0-6.18,9.12-10.39,21.86-4.21,12.75-4.39,20.36-2.11,20.84,2.52.53,5.07-3.81,7.14-7.44,3.46-6.08,7.69-11.7,12.76-16.51,5.27-4.99,12.42-10.55,21.11-14.4.11-.05.2-.09.31-.14,4.87-1.97,9.64-2.98,13.6-2.16,3.92.81,3.74,3.4,2.74,6.67-.73,2.4-1.64,4.61-2.59,6.78h.02c-.82,1.99-1.62,4.1-2.36,6.34-4.22,12.76-4.39,20.38-2.11,20.86,2.52.53,5.08-3.81,7.14-7.45,3.46-6.09,6.04-11.71,11.12-16.52,1.12-1.06,2.35-2.16,3.64-3.25v-.09c10.06-9.11,21.85-15.34,27.09-29.93,1.97-5.48,1.97-10.57,3.34-15.94,3.51-13.77,19.86-4.79,25.8-13.72,3.09-4.65-.68-4.14-3.91-5.35Z"/>
  <path fill="#FF0080" d="M154.72,96.37h.02c-.86-2.33-1.69-4.72-2.42-7.04-1.4-4.39-2.28-9.99-3.81-14.04-.09-.23-.09-.44-.35-.59-4.52,5.43-9.84,10.28-15.83,14.04l.03.32c2.87,3.8,5.72,7.62,8.59,11.42h.03s13.12,16.81,13.12,16.81c3.06,3.98,6.56-2.79,4.77-7.48l-4.15-13.43Z"/>
</svg>
