<?xml version="1.0" encoding="UTF-8"?>
<svg id="Layer_2" xmlns="http://www.w3.org/2000/svg" xmlns:xlink="http://www.w3.org/1999/xlink" version="1.1" viewBox="0 0 478.3 75.2">
  <!-- Generator: Adobe Illustrator 30.5.1, SVG Export Plug-In . SVG Version: 2.1.4 Build 3)  -->
  <defs>
    <style>
      .st0 {
        fill: url(#New_Gradient_Swatch);
      }
    </style>
    <linearGradient id="New_Gradient_Swatch" data-name="New Gradient Swatch" x1="108.5" y1="183.7" x2="385.2" y2="-93.1" gradientUnits="userSpaceOnUse">
      <stop offset="0" stop-color="#ff0080"/>
      <stop offset="1" stop-color="#7b2fff"/>
    </linearGradient>
  </defs>
  <path class="st0" d="M172.2,0h32.5v33.3c0,27.9-21.7,41.9-65.1,41.9s-65.1-14-65.1-41.9V0h32.5v32.2c0,12.5,10.8,18.8,32.5,18.8s32.5-6.3,32.5-18.8h0V0ZM32.5,32.2h0c0,12.5-10.8,18.8-32.5,18.8v24.2c43.4,0,65.1-14,65.1-41.9V0h-32.5v32.2ZM478.3,21.2V0h-130.2v73.5h130.2v-21.2h-97.6v-6.5h86.3v-18h-86.3v-6.5h97.6ZM342.6,0h-47.6l-46.9,29.6V0h-32.5v73.5h32.5v-15.9l19-11.7,33.8,27.5h44.8l-54-42.3L342.6,0Z"/>
</svg>